<?xml version="1.0" encoding="utf-8"?>
<!-- Generator: Adobe Illustrator 22.0.1, SVG Export Plug-In . SVG Version: 6.00 Build 0)  -->
<svg version="1.1" id="Layer_1" xmlns="http://www.w3.org/2000/svg" xmlns:xlink="http://www.w3.org/1999/xlink" x="0px" y="0px"
	 viewBox="0 0 296.5 76" style="enable-background:new 0 0 296.5 76;" xml:space="preserve">
<style type="text/css">
	.st0{fill:none;}
</style>
<g>
	<path class="st0" d="M198,53.5c0.3-0.3,0.4-0.8,0.4-1.4c0-0.5-0.1-0.9-0.3-1.3c-0.2-0.3-0.5-0.6-0.8-0.7c-0.3-0.2-0.7-0.3-1.1-0.3
		c-0.4-0.1-0.8-0.1-1.3-0.1h-2.5v4.9h1.6c0.5,0,1,0,1.5,0c0.5,0,1-0.1,1.4-0.3C197.3,54,197.7,53.8,198,53.5z"/>
	<path class="st0" d="M29.5,34.7l-5-9.6c-0.5-1-1.9-1-2.4,0l-7.1,13.6c-0.5,0.9,0.2,2,1.2,2h5.8v2.1c0,0.5,0.4,0.9,0.9,0.9h0.9
		c0.5,0,0.9-0.4,0.9-0.9v-2.1h1.7L29.5,34.7z"/>
	<path class="st0" d="M184.4,51c-0.5-0.6-1.1-1-1.8-1.3c-0.7-0.3-1.5-0.5-2.4-0.5c-0.9,0-1.6,0.2-2.4,0.5c-0.7,0.3-1.3,0.8-1.8,1.3
		c-0.5,0.6-0.9,1.2-1.2,1.9c-0.3,0.7-0.4,1.5-0.4,2.4s0.1,1.6,0.4,2.4c0.3,0.7,0.7,1.4,1.2,1.9c0.5,0.6,1.1,1,1.8,1.3
		c0.7,0.3,1.5,0.5,2.4,0.5c0.9,0,1.6-0.2,2.4-0.5c0.7-0.3,1.3-0.8,1.8-1.3s0.9-1.2,1.2-1.9c0.3-0.7,0.4-1.5,0.4-2.4
		s-0.1-1.6-0.4-2.4C185.3,52.3,184.9,51.6,184.4,51z"/>
	<path class="st0" d="M121.4,31.6c4.2,0,6.4-2.8,6.4-8.4c0-5.6-2.1-8.5-6.3-8.5c-2.1,0-3.7,0.7-4.8,2.1c-1.1,1.4-1.6,3.5-1.6,6.3
		s0.5,4.9,1.6,6.3C117.7,30.9,119.3,31.6,121.4,31.6z"/>
	<path class="st0" d="M151.3,15.8c-0.8-0.5-2.1-0.8-3.8-0.8h-1.6v6.8h1.7c1.7,0,2.9-0.3,3.7-0.8c0.8-0.6,1.2-1.4,1.2-2.6
		C152.6,17.2,152.1,16.3,151.3,15.8z"/>
	<polygon class="st0" points="96,50.3 92.9,57.5 99,57.5 96,50.3 	"/>
	<path class="st0" d="M242.1,15.8c-0.8-0.5-2.1-0.8-3.8-0.8h-1.6v6.8h1.7c1.7,0,2.9-0.3,3.7-0.8c0.8-0.6,1.2-1.4,1.2-2.6
		C243.4,17.2,243,16.3,242.1,15.8z"/>
	<path class="st0" d="M39.5,24.9c-0.3-0.5-0.7-0.7-1.2-0.7s-0.9,0.2-1.2,0.7L26.2,45.7c-0.5,0.9,0.2,2,1.2,2h8.9V51
		c0,0.5,0.4,0.9,0.9,0.9h2.3c0.5,0,0.9-0.4,0.9-0.9v-3.3h8.9c1,0,1.7-1.1,1.2-2L39.5,24.9z"/>
	<path class="st0" d="M291.4,15.3c-0.8,0-1.3,0.3-1.7,0.8c-0.3,0.5-0.5,1.2-0.5,2.2c0,2,0.7,3,2.2,3c1.5,0,2.2-1,2.2-3
		C293.6,16.3,292.9,15.3,291.4,15.3z"/>
	<path class="st0" d="M266,51c-0.5-0.6-1.1-1-1.8-1.3c-0.7-0.3-1.5-0.5-2.4-0.5c-0.9,0-1.6,0.2-2.4,0.5c-0.7,0.3-1.3,0.8-1.8,1.3
		c-0.5,0.6-0.9,1.2-1.2,1.9c-0.3,0.7-0.4,1.5-0.4,2.4s0.1,1.6,0.4,2.4c0.3,0.7,0.7,1.4,1.2,1.9c0.5,0.6,1.1,1,1.8,1.3
		c0.7,0.3,1.5,0.5,2.4,0.5c0.9,0,1.6-0.2,2.4-0.5c0.7-0.3,1.3-0.8,1.8-1.3s0.9-1.2,1.2-1.9c0.3-0.7,0.4-1.5,0.4-2.4
		s-0.1-1.6-0.4-2.4C266.9,52.3,266.5,51.6,266,51z"/>
	<polygon points="89.3,35.8 94.5,35.8 94.5,25.9 103,25.9 103,21.5 94.5,21.5 94.5,15.1 103.6,15.1 103.6,10.7 89.3,10.7 	"/>
	<path d="M121.4,36.1c3.8,0,6.8-1.1,8.8-3.3c2.1-2.2,3.1-5.4,3.1-9.6c0-4.2-1-7.3-3.1-9.6c-2-2.2-5-3.3-8.8-3.3s-6.8,1.1-8.9,3.3
		c-2.1,2.2-3.1,5.4-3.1,9.5s1,7.4,3.1,9.6C114.6,35,117.6,36.1,121.4,36.1z M116.7,16.9c1.1-1.4,2.7-2.1,4.8-2.1
		c4.2,0,6.3,2.8,6.3,8.5c0,5.6-2.1,8.4-6.4,8.4c-2.1,0-3.7-0.7-4.8-2.1c-1.1-1.4-1.6-3.5-1.6-6.3S115.6,18.3,116.7,16.9z"/>
	<path d="M156.7,22.2c0.8-1.1,1.2-2.5,1.2-3.9c0-2.5-0.8-4.4-2.4-5.6s-4.1-1.9-7.5-1.9h-7.3v25h5.3v-9.6h2.8l6,9.6h5.9
		c-1.1-1.6-3.6-5.3-7.4-10.9C154.7,24.2,155.9,23.3,156.7,22.2z M151.4,21c-0.8,0.6-2,0.8-3.7,0.8h-1.7v-6.8h1.6
		c1.7,0,3,0.3,3.8,0.8c0.8,0.5,1.2,1.3,1.2,2.5C152.6,19.6,152.2,20.4,151.4,21z"/>
	<polygon points="180.3,31.4 171.2,31.4 171.2,25.9 179.7,25.9 179.7,21.5 171.2,21.5 171.2,15.1 180.3,15.1 180.3,10.7 165.9,10.7 
		165.9,35.8 180.3,35.8 	"/>
	<path d="M196.3,21.3c-1.8-0.8-2.9-1.4-3.4-1.8c-0.5-0.3-0.8-0.7-1-1c-0.2-0.3-0.3-0.8-0.3-1.2c0-0.8,0.3-1.4,0.8-1.8
		c0.5-0.5,1.3-0.7,2.3-0.7c0.8,0,1.7,0.1,2.6,0.3c0.9,0.2,2,0.6,3.3,1.1l1.7-4.1c-1.3-0.6-2.5-1-3.7-1.3c-1.2-0.3-2.4-0.5-3.7-0.5
		c-2.6,0-4.7,0.6-6.2,1.9c-1.5,1.3-2.3,3-2.3,5.2c0,1.2,0.2,2.2,0.7,3.1s1.1,1.6,1.8,2.3c0.8,0.7,1.9,1.4,3.4,2.1
		c1.6,0.8,2.7,1.3,3.2,1.7c0.5,0.4,0.9,0.7,1.2,1.1c0.3,0.4,0.4,0.8,0.4,1.3c0,0.9-0.3,1.5-0.9,2c-0.6,0.4-1.5,0.7-2.7,0.7
		c-1,0-2-0.2-3.2-0.5c-1.2-0.3-2.6-0.8-4.3-1.6v4.9c2.1,1,4.4,1.5,7.1,1.5c2.9,0,5.2-0.7,6.8-2c1.6-1.3,2.4-3.1,2.4-5.3
		c0-1.6-0.4-3-1.3-4.1C200.2,23.5,198.6,22.4,196.3,21.3z"/>
	<polygon points="213.4,35.8 218.7,35.8 218.7,15.1 225.5,15.1 225.5,10.7 206.6,10.7 206.6,15.1 213.4,15.1 	"/>
	<path d="M247.5,22.2c0.8-1.1,1.2-2.5,1.2-3.9c0-2.5-0.8-4.4-2.4-5.6c-1.6-1.2-4.1-1.9-7.5-1.9h-7.3v25h5.3v-9.6h2.8l6,9.6h5.9
		c-1.1-1.6-3.6-5.3-7.4-10.9C245.5,24.2,246.7,23.3,247.5,22.2z M242.2,21c-0.8,0.6-2,0.8-3.7,0.8h-1.7v-6.8h1.6
		c1.7,0,3,0.3,3.8,0.8c0.8,0.5,1.2,1.3,1.2,2.5C243.4,19.6,243,20.4,242.2,21z"/>
	<polygon points="264.5,21 259.3,10.7 253.5,10.7 261.8,26.2 261.8,35.8 267.1,35.8 267.1,26 275.4,10.7 269.7,10.7 	"/>
	<rect x="282.4" y="14" width="1.8" height="8.7"/>
	<path d="M283.3,10.6c-0.3,0-0.6,0.1-0.8,0.3c-0.2,0.2-0.3,0.4-0.3,0.8c0,0.3,0.1,0.6,0.3,0.7s0.4,0.3,0.8,0.3
		c0.3,0,0.6-0.1,0.8-0.3s0.3-0.4,0.3-0.7c0-0.3-0.1-0.6-0.3-0.8C283.9,10.7,283.6,10.6,283.3,10.6z"/>
	<path d="M294.4,15c-0.7-0.8-1.7-1.2-3-1.2c-1.3,0-2.3,0.4-3,1.2c-0.7,0.8-1.1,1.9-1.1,3.3c0,0.9,0.2,1.7,0.5,2.4
		c0.3,0.7,0.8,1.2,1.4,1.6c0.6,0.4,1.3,0.5,2.1,0.5c1.3,0,2.3-0.4,3-1.2c0.7-0.8,1.1-1.9,1.1-3.3C295.5,16.9,295.1,15.8,294.4,15z
		 M291.4,21.3c-1.5,0-2.2-1-2.2-3c0-1,0.2-1.7,0.5-2.2c0.3-0.5,0.9-0.8,1.7-0.8c1.5,0,2.2,1,2.2,3C293.6,20.3,292.9,21.3,291.4,21.3
		z"/>
	<path d="M62.9,18L34.4,1.5c-1.1-0.6-2.5-0.6-3.6,0L2.3,18c-1.1,0.6-1.8,1.8-1.8,3.1v33c0,1.3,0.7,2.5,1.8,3.1l28.5,16.5
		c1.1,0.6,2.5,0.6,3.6,0l28.5-16.5c1.1-0.6,1.8-1.8,1.8-3.1v-33C64.7,19.8,64,18.6,62.9,18z M24.6,42.7c0,0.5-0.4,0.9-0.9,0.9h-0.9
		c-0.5,0-0.9-0.4-0.9-0.9v-2.1h-5.8c-1,0-1.7-1.1-1.2-2l7.1-13.6c0.5-1,1.9-1,2.4,0l5,9.6l-3.1,6h-1.7V42.7z M49.2,47.7h-8.9V51
		c0,0.5-0.4,0.9-0.9,0.9h-2.3c-0.5,0-0.9-0.4-0.9-0.9v-3.3h-8.9c-1,0-1.7-1.1-1.2-2l10.9-20.8c0.3-0.5,0.7-0.7,1.2-0.7
		s0.9,0.2,1.2,0.7l10.9,20.8C50.8,46.6,50.2,47.7,49.2,47.7z"/>
	<path d="M95.3,48l-6.5,14.7h2l1.5-3.6h7.4l1.5,3.6h2L96.9,48H95.3z M92.9,57.5l3.1-7.2h0l2.9,7.2H92.9z"/>
	<path d="M119.9,61c-0.7,0.4-1.5,0.5-2.4,0.5c-0.8,0-1.6-0.2-2.3-0.5c-0.7-0.3-1.3-0.8-1.8-1.3c-0.5-0.5-0.9-1.2-1.2-1.9
		c-0.3-0.7-0.4-1.5-0.4-2.4c0-0.8,0.1-1.6,0.4-2.3c0.3-0.7,0.7-1.4,1.2-2c0.5-0.6,1.1-1,1.8-1.3c0.7-0.3,1.4-0.5,2.3-0.5
		c0.7,0,1.4,0.1,2,0.4c0.7,0.3,1.2,0.7,1.6,1.3l1.5-1.1c-0.6-0.8-1.4-1.4-2.3-1.8s-1.9-0.5-2.9-0.5c-1.1,0-2.1,0.2-3,0.6
		s-1.7,0.9-2.4,1.6c-0.7,0.7-1.2,1.5-1.5,2.5c-0.4,0.9-0.6,2-0.6,3c0,1.1,0.2,2.2,0.6,3.1c0.4,0.9,0.9,1.8,1.6,2.4
		c0.7,0.7,1.5,1.2,2.4,1.6s1.9,0.6,3,0.6c1.2,0,2.2-0.2,3.2-0.6c0.9-0.4,1.7-1.1,2.4-2l-1.3-1.1C121.3,60.1,120.7,60.6,119.9,61z"/>
	<polygon points="133.2,59.6 133.1,59.6 128.1,48 125.5,48 125.5,62.7 127.3,62.7 127.3,50.4 127.3,50.4 132.6,62.7 133.7,62.7 
		139,50.4 139,50.4 139,62.7 140.7,62.7 140.7,48 138.2,48 	"/>
	<path d="M151.7,55.8c-0.4-0.3-0.9-0.6-1.4-0.8c-0.5-0.2-1.1-0.4-1.7-0.6c-0.6-0.2-1.1-0.4-1.5-0.5c-0.4-0.2-0.7-0.4-1-0.6
		s-0.4-0.4-0.5-0.7c-0.1-0.3-0.2-0.6-0.2-0.9c0-0.4,0.1-0.8,0.3-1.1c0.2-0.3,0.4-0.6,0.7-0.8c0.3-0.2,0.6-0.3,1-0.4
		c0.4-0.1,0.8-0.1,1.1-0.1c0.5,0,1,0.1,1.5,0.3c0.5,0.2,0.9,0.6,1.2,1l1.4-1.2c-0.5-0.6-1.2-1.1-1.8-1.3c-0.7-0.3-1.4-0.4-2.3-0.4
		c-0.7,0-1.3,0.1-1.9,0.3c-0.6,0.2-1.1,0.4-1.6,0.8s-0.8,0.8-1.1,1.3c-0.3,0.5-0.4,1.1-0.4,1.9c0,0.6,0.1,1.1,0.3,1.6
		c0.2,0.4,0.4,0.8,0.8,1.1c0.3,0.3,0.7,0.6,1.2,0.8s0.9,0.4,1.5,0.6c0.7,0.2,1.2,0.4,1.7,0.6c0.5,0.2,0.9,0.4,1.2,0.6
		c0.3,0.2,0.6,0.5,0.7,0.7c0.2,0.3,0.2,0.7,0.2,1.1c0,0.4-0.1,0.8-0.3,1.1c-0.2,0.3-0.4,0.6-0.7,0.8c-0.3,0.2-0.6,0.4-1,0.5
		c-0.4,0.1-0.8,0.2-1.1,0.2c-0.6,0-1.2-0.1-1.8-0.4s-1-0.7-1.3-1.2l-1.5,1.2c0.2,0.4,0.5,0.7,0.9,0.9c0.3,0.3,0.7,0.5,1.1,0.6
		c0.4,0.2,0.8,0.3,1.2,0.4s0.9,0.1,1.3,0.1c0.7,0,1.3-0.1,1.9-0.3s1.2-0.4,1.7-0.8c0.5-0.4,0.9-0.8,1.2-1.3c0.3-0.5,0.4-1.2,0.4-1.9
		c0-0.7-0.1-1.3-0.4-1.8C152.5,56.5,152.1,56.1,151.7,55.8z"/>
	<polygon points="161.7,62.7 163.5,62.7 163.5,56.1 170.4,56.1 170.4,54.5 163.5,54.5 163.5,49.6 170.9,49.6 170.9,48 161.7,48 	"/>
	<path d="M185.7,49.8c-0.7-0.7-1.5-1.2-2.4-1.6c-0.9-0.4-2-0.6-3.1-0.6s-2.2,0.2-3.1,0.6c-0.9,0.4-1.7,0.9-2.4,1.6
		c-0.7,0.7-1.2,1.5-1.6,2.5c-0.4,0.9-0.6,2-0.6,3.1c0,1.1,0.2,2.1,0.6,3.1c0.4,0.9,0.9,1.8,1.6,2.5c0.7,0.7,1.5,1.2,2.4,1.6
		s2,0.6,3.1,0.6s2.2-0.2,3.1-0.6s1.7-0.9,2.4-1.6c0.7-0.7,1.2-1.5,1.6-2.5c0.4-1,0.6-2,0.6-3.1c0-1.1-0.2-2.1-0.6-3.1
		C186.9,51.3,186.4,50.5,185.7,49.8z M185.5,57.8c-0.3,0.7-0.7,1.4-1.2,1.9s-1.1,1-1.8,1.3c-0.7,0.3-1.5,0.5-2.4,0.5
		c-0.9,0-1.6-0.2-2.4-0.5c-0.7-0.3-1.3-0.8-1.8-1.3c-0.5-0.6-0.9-1.2-1.2-1.9c-0.3-0.7-0.4-1.5-0.4-2.4s0.1-1.6,0.4-2.4
		c0.3-0.7,0.7-1.4,1.2-1.9c0.5-0.6,1.1-1,1.8-1.3c0.7-0.3,1.5-0.5,2.4-0.5c0.9,0,1.6,0.2,2.4,0.5c0.7,0.3,1.3,0.8,1.8,1.3
		s0.9,1.2,1.2,1.9c0.3,0.7,0.4,1.5,0.4,2.4S185.8,57,185.5,57.8z"/>
	<path d="M199.3,54.7c0.7-0.7,1-1.5,1-2.6c0-0.9-0.2-1.6-0.5-2.2c-0.3-0.5-0.8-0.9-1.4-1.2s-1.2-0.5-1.9-0.5s-1.4-0.1-2.1-0.1h-3.8
		v14.7h1.7v-6.6h2.2l4,6.6h2.1l-4.2-6.8C197.7,55.8,198.7,55.4,199.3,54.7z M194,54.5h-1.6v-4.9h2.5c0.4,0,0.9,0,1.3,0.1
		c0.4,0.1,0.8,0.2,1.1,0.3c0.3,0.2,0.6,0.4,0.8,0.7c0.2,0.3,0.3,0.7,0.3,1.3c0,0.6-0.1,1.1-0.4,1.4c-0.3,0.3-0.6,0.6-1.1,0.7
		c-0.4,0.2-0.9,0.2-1.4,0.3C194.9,54.5,194.4,54.5,194,54.5z"/>
	<polygon points="218.7,54.3 210.9,54.3 210.9,48 209.1,48 209.1,62.7 210.9,62.7 210.9,55.9 218.7,55.9 218.7,62.7 220.5,62.7 
		220.5,48 218.7,48 	"/>
	<path d="M233.5,56.9c0,0.6-0.1,1.2-0.2,1.7c-0.1,0.6-0.3,1-0.6,1.5s-0.7,0.8-1.2,1c-0.5,0.3-1.1,0.4-1.8,0.4
		c-0.7,0-1.3-0.1-1.8-0.4c-0.5-0.3-0.9-0.6-1.2-1c-0.3-0.4-0.5-0.9-0.6-1.5c-0.1-0.6-0.2-1.1-0.2-1.7V48h-1.7v9.1
		c0,0.8,0.1,1.6,0.3,2.3s0.5,1.4,1,1.9c0.4,0.5,1,1,1.7,1.3c0.7,0.3,1.6,0.5,2.6,0.5s1.9-0.2,2.6-0.5c0.7-0.3,1.3-0.8,1.7-1.3
		c0.4-0.5,0.8-1.2,1-1.9s0.3-1.5,0.3-2.3V48h-1.7V56.9z"/>
	<path d="M246.2,56.1h3.4v4.5c-0.5,0.3-1.1,0.5-1.8,0.6c-0.7,0.1-1.3,0.2-1.9,0.2c-0.9,0-1.7-0.2-2.5-0.5s-1.4-0.7-1.9-1.3
		s-0.9-1.2-1.2-1.9c-0.3-0.7-0.4-1.6-0.4-2.4c0-0.9,0.1-1.7,0.4-2.5c0.3-0.7,0.7-1.4,1.2-1.9c0.5-0.5,1.2-1,1.9-1.3s1.5-0.5,2.4-0.5
		c0.7,0,1.5,0.1,2.2,0.4c0.7,0.3,1.3,0.7,1.8,1.2l1.3-1.4c-0.7-0.7-1.5-1.2-2.4-1.5s-1.8-0.4-2.8-0.4c-1.1,0-2.1,0.2-3.1,0.6
		c-1,0.4-1.8,0.9-2.5,1.6c-0.7,0.7-1.3,1.5-1.7,2.4c-0.4,0.9-0.6,2-0.6,3.2c0,1.2,0.2,2.2,0.6,3.2c0.4,0.9,0.9,1.8,1.6,2.4
		s1.5,1.2,2.5,1.6c1,0.4,2,0.6,3.2,0.6c1,0,1.9-0.1,2.8-0.3c0.9-0.2,1.8-0.6,2.7-1v-7.2h-5.1V56.1z"/>
	<path d="M267.3,49.8c-0.7-0.7-1.5-1.2-2.4-1.6c-0.9-0.4-2-0.6-3.1-0.6s-2.2,0.2-3.1,0.6c-0.9,0.4-1.7,0.9-2.4,1.6
		c-0.7,0.7-1.2,1.5-1.6,2.5c-0.4,0.9-0.6,2-0.6,3.1c0,1.1,0.2,2.1,0.6,3.1c0.4,0.9,0.9,1.8,1.6,2.5c0.7,0.7,1.5,1.2,2.4,1.6
		s2,0.6,3.1,0.6s2.2-0.2,3.1-0.6s1.7-0.9,2.4-1.6c0.7-0.7,1.2-1.5,1.6-2.5c0.4-1,0.6-2,0.6-3.1c0-1.1-0.2-2.1-0.6-3.1
		C268.6,51.3,268,50.5,267.3,49.8z M267.2,57.8c-0.3,0.7-0.7,1.4-1.2,1.9s-1.1,1-1.8,1.3c-0.7,0.3-1.5,0.5-2.4,0.5
		c-0.9,0-1.6-0.2-2.4-0.5c-0.7-0.3-1.3-0.8-1.8-1.3c-0.5-0.6-0.9-1.2-1.2-1.9c-0.3-0.7-0.4-1.5-0.4-2.4s0.1-1.6,0.4-2.4
		c0.3-0.7,0.7-1.4,1.2-1.9c0.5-0.6,1.1-1,1.8-1.3c0.7-0.3,1.5-0.5,2.4-0.5c0.9,0,1.6,0.2,2.4,0.5c0.7,0.3,1.3,0.8,1.8,1.3
		s0.9,1.2,1.2,1.9c0.3,0.7,0.4,1.5,0.4,2.4S267.5,57,267.2,57.8z"/>
</g>
</svg>
