<svg data-name="Layer 1" xmlns="http://www.w3.org/2000/svg" viewBox="0 0 342.3 65.4"><title>forestry-logotype-pos</title><path d="M55.89 15.18L30.35.43a3.2 3.2 0 0 0-3.2 0L1.6 15.18A3.2 3.2 0 0 0 0 18v29.5a3.2 3.2 0 0 0 1.6 2.77L27.15 65a3.2 3.2 0 0 0 3.2 0l25.54-14.78a3.2 3.2 0 0 0 1.6-2.77V18a3.2 3.2 0 0 0-1.6-2.82zM20 38.1a.8.8 0 0 1-.8-.8v-1.85H14a1.2 1.2 0 0 1-1.06-1.76l6.36-12.16a1.2 1.2 0 0 1 2.13 0l4.49 8.58-2.79 5.34h-1.56v1.85a.8.8 0 0 1-.8.8zm14.88 7.41h-2a.8.8 0 0 1-.8-.8v-2.93h-8.02A1.2 1.2 0 0 1 23 40l9.76-18.65a1.2 1.2 0 0 1 2.13 0L44.65 40a1.2 1.2 0 0 1-1.06 1.76h-7.95v2.93a.8.8 0 0 1-.8.82zM93.23 49h-6.47V18h17.78v5.39H93.23v8h10.52v5.37H93.23zm48.13-15.51q0 7.7-3.82 11.84t-10.94 4.13q-7.13 0-10.95-4.14t-3.82-11.88q0-7.74 3.83-11.83t11-4.08q7.15 0 10.94 4.12t3.76 11.84zm-22.63 0q0 5.2 2 7.83a6.9 6.9 0 0 0 5.9 2.63q7.87 0 7.87-10.46T126.64 23a7 7 0 0 0-5.92 2.64q-1.99 2.65-1.99 7.85zM157 37.14V49h-6.6V18h9q6.32 0 9.35 2.3t3 7a8.23 8.23 0 0 1-1.51 4.87 10 10 0 0 1-4.26 3.34q7 10.46 9.12 13.51h-7.3l-7.4-11.9zm0-5.35h2.12a8.11 8.11 0 0 0 4.6-1 3.71 3.71 0 0 0 1.49-3.27 3.4 3.4 0 0 0-1.52-3.14 9.21 9.21 0 0 0-4.7-.93h-2zM199.54 49h-17.86V18h17.86v5.39h-11.28v8h10.5v5.39h-10.5v6.83h11.29zm27.38-8.57a8 8 0 0 1-3 6.62q-3 2.42-8.41 2.42a19.75 19.75 0 0 1-8.78-1.87v-6.11a36.16 36.16 0 0 0 5.31 2 15.72 15.72 0 0 0 4 .57 5.66 5.66 0 0 0 3.32-.83 2.83 2.83 0 0 0 1.16-2.46 2.72 2.72 0 0 0-.51-1.62 5.7 5.7 0 0 0-1.5-1.37 38.65 38.65 0 0 0-4-2.1 19.06 19.06 0 0 1-4.26-2.57 9.62 9.62 0 0 1-2.27-2.86 8.17 8.17 0 0 1-.85-3.82 8 8 0 0 1 2.79-6.47q2.79-2.35 7.71-2.35a18.21 18.21 0 0 1 4.61.57 31.78 31.78 0 0 1 4.59 1.61l-2.12 5.11a31 31 0 0 0-4.1-1.42 13.22 13.22 0 0 0-3.19-.4 4.22 4.22 0 0 0-2.86.87 2.87 2.87 0 0 0-1 2.27 2.81 2.81 0 0 0 .4 1.52 4.42 4.42 0 0 0 1.22 1.26 39.57 39.57 0 0 0 4.17 2.17q4.35 2.08 6 4.17a8.14 8.14 0 0 1 1.57 5.09zm20.2 8.57h-6.58V23.5h-8.42V18h23.42v5.5h-8.42zm22.37-11.86V49h-6.58V18h9q6.32 0 9.35 2.3t3 7a8.23 8.23 0 0 1-1.51 4.87 10 10 0 0 1-4.26 3.34q7 10.46 9.12 13.51h-7.3L273 37.14zm0-5.35h2.12a8.11 8.11 0 0 0 4.6-1 3.71 3.71 0 0 0 1.49-3.27 3.4 3.4 0 0 0-1.52-3.14 9.21 9.21 0 0 0-4.7-.93h-2zm34.36-.99l6.47-12.8h7.08l-10.28 19v12h-6.53V37.18L290.3 18h7.13zm22.05-11.6a1.27 1.27 0 0 1 .33-.94 1.31 1.31 0 0 1 1-.33 1.28 1.28 0 0 1 .94.33 1.27 1.27 0 0 1 .34.94 1.24 1.24 0 0 1-.34.92 1.27 1.27 0 0 1-.94.34 1.3 1.3 0 0 1-1-.34 1.24 1.24 0 0 1-.33-.92zm2.42 13.59H326V22h2.28zm13.98-5.4a5.86 5.86 0 0 1-1.3 4.11 4.84 4.84 0 0 1-3.8 1.5 5.15 5.15 0 0 1-2.66-.68 4.49 4.49 0 0 1-1.78-2 6.64 6.64 0 0 1-.62-3 5.82 5.82 0 0 1 1.34-4.08 4.86 4.86 0 0 1 3.78-1.47 4.73 4.73 0 0 1 3.69 1.5 5.79 5.79 0 0 1 1.35 4.12zm-7.82 0q0 3.72 2.75 3.72t2.77-3.72q0-3.68-2.74-3.68a2.34 2.34 0 0 0-2.08 1 4.85 4.85 0 0 0-.69 2.68z"/></svg>